<?xml version="1.0" standalone="no"?>
<!DOCTYPE svg PUBLIC "-//W3C//DTD SVG 20010904//EN"
 "http://www.w3.org/TR/2001/REC-SVG-20010904/DTD/svg10.dtd">
<svg version="1.0" xmlns="http://www.w3.org/2000/svg"
 width="1024.000000pt" height="1024.000000pt" viewBox="0 0 1024.000000 1024.000000"
 preserveAspectRatio="xMidYMid meet">
<metadata>
Created by potrace 1.14, written by Peter Selinger 2001-2017
</metadata>
<g transform="translate(0.000000,1024.000000) scale(0.100000,-0.100000)"
fill="#000000" stroke="none">
<path d="M3979 10224 c-8 -8 -149 -148 -314 -312 -165 -163 -336 -337 -380
-385 -44 -49 -93 -103 -110 -120 -16 -18 -59 -65 -95 -106 -36 -40 -74 -83
-85 -95 -11 -13 -42 -49 -70 -81 -27 -32 -55 -63 -60 -69 -6 -6 -30 -36 -55
-66 -61 -75 -83 -101 -95 -114 -9 -9 -189 -234 -218 -271 -4 -5 -15 -20 -25
-32 -10 -12 -27 -34 -38 -48 -10 -15 -46 -62 -79 -106 -33 -43 -82 -109 -110
-146 -27 -37 -53 -69 -57 -71 -5 -2 -8 -10 -8 -17 0 -7 -4 -15 -8 -17 -7 -3
-210 -289 -222 -313 -3 -5 -38 -58 -77 -117 -40 -59 -73 -112 -73 -117 0 -5
-3 -11 -8 -13 -12 -5 -215 -335 -300 -488 -14 -25 -34 -57 -44 -72 -11 -16
-16 -28 -13 -28 3 0 -2 -12 -12 -28 -34 -51 -43 -68 -182 -347 -138 -276 -159
-323 -248 -540 -57 -139 -143 -372 -149 -404 -3 -13 -11 -36 -20 -52 -8 -16
-14 -32 -13 -36 1 -4 0 -11 -1 -15 -1 -5 -3 -11 -4 -15 -1 -5 -11 -39 -23 -78
-12 -38 -27 -92 -33 -120 -16 -69 -15 -65 -28 -110 -6 -22 -13 -56 -15 -75 -3
-19 -7 -42 -11 -50 -3 -8 -8 -31 -10 -50 -3 -19 -7 -51 -11 -70 -7 -42 -12
-81 -22 -175 -15 -133 -7 -625 12 -737 2 -12 6 -48 9 -78 4 -30 8 -64 10 -75
2 -11 7 -42 10 -70 4 -27 9 -63 12 -78 3 -16 7 -38 9 -50 2 -12 8 -47 14 -77
6 -30 14 -66 16 -80 7 -39 12 -58 41 -170 14 -58 27 -109 29 -115 1 -5 4 -17
7 -25 3 -8 16 -49 28 -90 12 -41 24 -82 27 -90 3 -8 7 -19 9 -25 4 -14 44
-126 53 -150 35 -88 78 -190 102 -244 16 -35 29 -69 29 -77 0 -8 4 -14 9 -14
4 0 16 -21 26 -47 10 -27 24 -55 31 -64 8 -8 14 -23 14 -32 0 -9 5 -19 10 -22
6 -4 17 -21 25 -38 24 -54 121 -223 141 -247 7 -8 13 -18 13 -22 1 -5 18 -33
39 -64 20 -31 42 -64 47 -73 28 -44 52 -78 67 -95 10 -11 18 -23 18 -28 0 -4
8 -17 18 -27 9 -11 33 -41 52 -68 19 -26 37 -50 40 -53 3 -3 34 -41 70 -85 80
-98 101 -124 165 -193 66 -72 262 -267 300 -299 17 -14 55 -47 85 -74 30 -27
87 -74 125 -105 39 -31 80 -64 92 -75 12 -10 42 -30 65 -45 24 -15 45 -30 48
-34 11 -15 301 -203 350 -226 8 -4 17 -10 20 -14 3 -3 30 -18 60 -34 30 -15
87 -44 127 -65 60 -32 205 -99 338 -157 78 -34 306 -114 324 -114 11 0 22 -4
25 -9 3 -4 20 -12 38 -16 18 -4 38 -9 43 -11 35 -11 209 -56 230 -59 11 -2 20
-4 20 -5 0 -2 8 -3 85 -19 30 -5 66 -13 80 -16 14 -3 43 -8 64 -10 21 -3 42
-7 45 -9 7 -5 116 -19 154 -20 15 0 27 -3 27 -6 0 -3 15 -5 33 -6 17 0 79 -4
137 -9 124 -11 559 -13 680 -2 187 15 249 23 420 53 47 8 96 17 110 19 14 2
36 7 50 10 31 7 59 14 85 19 11 2 49 12 85 21 36 10 72 19 80 20 8 1 22 5 30
8 45 17 286 91 293 89 4 -1 7 2 7 7 0 5 12 11 28 14 15 3 45 14 67 23 22 10
42 18 45 19 50 15 272 116 281 128 3 5 9 8 13 7 7 -2 137 61 146 70 3 3 31 19
62 35 32 17 58 33 58 38 0 4 7 7 16 7 15 0 405 253 436 283 7 7 42 35 78 62
36 28 67 53 70 56 3 3 37 32 75 64 153 128 456 434 513 517 9 12 25 32 37 43
11 11 69 85 128 165 59 80 111 150 115 155 4 6 22 33 39 60 18 28 36 55 40 61
9 11 15 21 75 119 23 39 52 89 65 113 13 24 37 69 54 100 45 81 53 97 98 192
52 110 108 240 133 310 11 30 24 64 29 75 11 25 107 319 113 349 3 11 18 73
35 136 16 63 32 129 35 145 2 17 7 41 10 55 3 14 7 36 10 50 3 14 9 48 15 77
6 28 13 78 16 110 4 32 8 60 10 63 4 7 18 134 32 295 10 118 10 482 0 565 -9
83 -14 116 -22 160 -4 19 -8 44 -9 55 -3 17 -13 68 -32 155 -3 14 -7 34 -9 46
-3 11 -23 85 -46 165 -22 79 -42 149 -43 154 -1 6 -4 15 -7 20 -3 6 -11 30
-18 55 -7 25 -17 54 -21 65 -5 11 -19 49 -31 85 -12 36 -26 73 -31 83 -5 10
-11 26 -13 35 -4 19 -58 160 -79 207 -33 72 -56 125 -56 129 0 2 -14 35 -32
73 -17 37 -32 70 -33 73 -2 9 -47 105 -106 224 -33 66 -59 125 -59 132 0 6 -7
15 -16 18 -9 4 -14 9 -11 12 3 3 -4 22 -15 42 -12 21 -40 73 -63 117 -53 101
-88 165 -131 236 -19 31 -34 62 -34 68 0 6 -4 11 -10 11 -5 0 -10 5 -10 11 0
6 -14 31 -30 56 -16 24 -30 46 -30 48 0 6 -99 163 -162 258 -32 48 -58 91 -58
96 0 4 -9 16 -20 26 -11 10 -20 24 -20 32 0 7 -3 13 -8 13 -4 0 -16 16 -26 35
-11 19 -23 35 -28 35 -4 0 -8 4 -8 10 0 8 -40 69 -82 125 -4 6 -65 86 -134
180 -70 93 -132 175 -138 181 -6 7 -24 30 -41 51 -103 130 -256 308 -370 431
-102 110 -375 382 -384 382 -4 0 -49 -40 -101 -90 -52 -49 -98 -90 -102 -90
-4 0 -8 -3 -8 -7 0 -5 -82 -92 -183 -194 -100 -102 -216 -223 -257 -268 -41
-46 -91 -100 -110 -121 -20 -21 -54 -59 -75 -84 -22 -26 -53 -62 -70 -80 -16
-17 -52 -60 -80 -94 -27 -34 -53 -62 -57 -62 -5 0 -8 -4 -8 -10 0 -5 -17 -27
-37 -50 l-38 -40 -65 87 c-36 49 -66 94 -68 101 -2 6 -7 12 -12 12 -5 0 -18
16 -30 35 -12 20 -27 41 -34 48 -6 6 -43 53 -81 102 -38 50 -74 95 -80 101 -5
6 -22 26 -37 45 -58 74 -114 143 -138 168 -9 9 -29 34 -45 56 -17 21 -39 48
-50 60 -11 12 -40 45 -65 74 -25 30 -50 59 -55 65 -6 6 -41 47 -79 91 -38 44
-82 94 -98 110 -15 17 -42 46 -59 65 -58 66 -244 263 -384 407 -77 80 -141
149 -143 154 -2 5 -10 9 -18 9 -8 0 -14 4 -14 9 0 9 -118 126 -356 352 -74 69
-77 71 -95 53z m114 -3276 c9 -10 17 -22 17 -27 0 -5 4 -11 8 -13 4 -1 23 -23
42 -48 19 -24 41 -51 48 -58 7 -8 25 -30 40 -50 15 -21 32 -42 37 -48 6 -7 21
-26 35 -44 14 -18 35 -44 46 -59 12 -14 135 -170 273 -346 139 -176 261 -330
272 -343 10 -12 19 -25 19 -28 0 -4 10 -15 22 -25 11 -11 17 -19 13 -19 -5 0
-2 -6 7 -12 8 -7 59 -69 112 -138 54 -69 107 -136 118 -150 11 -14 38 -49 60
-77 22 -29 45 -53 51 -53 6 0 7 -3 4 -6 -6 -6 69 -105 86 -112 4 -2 7 -8 7
-14 0 -5 6 -15 13 -23 14 -15 29 -34 77 -95 47 -61 53 -69 65 -83 6 -7 33 -41
60 -77 108 -140 178 -225 186 -228 5 -2 9 -9 9 -16 0 -6 16 -29 35 -49 19 -20
35 -40 35 -45 0 -4 14 -23 31 -42 17 -19 38 -45 46 -58 15 -21 43 -31 43 -14
0 4 15 23 33 43 17 20 59 67 92 104 33 38 69 78 80 90 11 13 43 49 70 81 28
31 55 62 60 68 6 6 55 63 110 126 55 63 104 120 110 126 5 6 37 42 70 80 33
38 70 79 83 92 12 12 22 25 22 27 0 2 10 15 23 28 32 34 94 104 157 177 30 34
59 68 65 74 11 12 119 136 155 178 l23 27 42 -67 c23 -37 44 -74 48 -82 4 -8
17 -31 28 -50 12 -19 37 -64 56 -100 19 -36 39 -70 44 -76 5 -6 6 -14 2 -17
-3 -4 -1 -7 5 -7 7 0 11 -3 10 -7 0 -5 22 -57 50 -116 29 -59 52 -113 52 -120
0 -7 6 -24 14 -38 12 -23 44 -111 53 -144 1 -5 7 -28 13 -50 6 -22 13 -47 15
-55 2 -8 4 -15 5 -15 1 0 3 -7 5 -16 1 -10 10 -48 19 -87 8 -38 18 -89 21
-113 3 -24 7 -55 10 -69 9 -45 16 -124 18 -202 1 -43 6 -78 10 -78 4 0 4 -8
-1 -17 -5 -10 -6 -29 -2 -43 4 -14 3 -35 -1 -47 -5 -13 -4 -25 2 -28 5 -4 6
-12 2 -18 -4 -7 -8 -39 -9 -72 -1 -33 -3 -60 -4 -60 -1 0 -3 -20 -4 -45 -4
-54 -14 -118 -36 -225 -6 -27 -12 -59 -14 -70 -15 -77 -102 -338 -124 -372 -8
-13 -12 -23 -9 -23 9 0 -103 -216 -146 -283 -20 -31 -37 -62 -37 -67 0 -6 -4
-10 -9 -10 -5 0 -12 -8 -15 -18 -4 -10 -14 -27 -24 -38 -9 -11 -39 -49 -67
-84 -27 -36 -57 -72 -65 -81 -8 -8 -36 -38 -61 -65 -71 -75 -178 -174 -189
-174 -6 0 -10 -3 -10 -8 0 -4 -27 -28 -61 -52 -33 -25 -80 -60 -105 -78 -24
-18 -44 -29 -44 -25 0 4 -4 3 -8 -3 -4 -6 -41 -30 -82 -55 -41 -24 -78 -47
-81 -52 -3 -5 -9 -8 -13 -8 -3 1 -48 -19 -98 -43 -97 -47 -185 -86 -192 -86
-2 0 -20 -7 -40 -15 -20 -8 -38 -15 -41 -15 -3 0 -29 -9 -57 -20 -52 -18 -154
-49 -187 -55 -9 -2 -17 -4 -18 -4 -2 -1 -5 -1 -8 -2 -2 0 -19 -5 -37 -10 -18
-6 -46 -12 -63 -14 -16 -3 -52 -9 -80 -14 -47 -9 -71 -13 -185 -26 -25 -3 -83
-7 -128 -9 -46 -3 -86 -7 -89 -9 -2 -3 -18 -1 -34 3 -17 5 -29 5 -29 0 0 -6
-10 -6 -25 0 -15 6 -26 6 -30 -1 -4 -5 -11 -6 -17 -3 -6 4 -45 8 -87 10 -256
9 -488 50 -766 136 -55 17 -105 34 -111 39 -6 5 -19 10 -30 12 -24 5 -58 19
-154 63 -78 36 -87 41 -185 94 -101 55 -293 185 -308 207 -4 7 -12 13 -17 13
-5 0 -20 10 -33 23 -65 61 -130 117 -138 117 -5 0 -9 4 -9 8 0 4 -24 32 -53
62 -186 192 -337 422 -460 700 -21 49 -50 126 -52 140 0 3 -3 10 -7 16 -4 6
-9 21 -12 35 -2 13 -12 44 -20 68 -9 24 -18 53 -20 65 -3 12 -14 64 -25 116
-19 87 -28 141 -46 284 -4 27 -8 85 -9 131 -2 45 -6 87 -10 93 -4 7 -4 12 1
12 4 0 8 16 8 35 0 19 -4 35 -8 35 -4 0 -4 8 2 17 5 10 5 26 1 39 -5 12 -6 24
-3 27 5 6 9 36 15 119 2 27 6 48 10 48 4 0 5 6 2 13 -3 8 5 56 17 108 11 52
22 101 24 109 2 8 4 16 5 18 2 1 3 5 4 10 8 31 40 133 51 157 55 129 79 191
77 194 -2 2 0 7 5 10 4 3 27 44 51 91 48 97 93 179 126 230 60 93 76 120 76
130 0 5 5 10 10 10 6 0 10 6 10 14 0 8 4 16 8 18 5 2 26 30 47 63 52 79 165
238 173 245 4 3 21 25 37 50 17 24 36 51 43 60 7 8 35 44 63 80 27 36 52 70
56 75 28 36 159 201 163 205 3 3 41 50 84 105 44 55 86 105 93 111 7 6 13 16
13 23 0 6 4 11 8 11 4 0 38 37 74 83 37 45 77 94 89 110 l23 27 30 -37 c17
-21 39 -46 49 -55z"/>
</g>
</svg>
